<mxfile host="Electron" agent="Mozilla/5.0 (Macintosh; Intel Mac OS X 10_15_7) AppleWebKit/537.36 (KHTML, like Gecko) draw.io/25.0.2 Chrome/128.0.6613.186 Electron/32.2.5 Safari/537.36" version="25.0.2" pages="2">
  <diagram name="Containers" id="WUGtjGO9-oAKIlw_bZEC">
    <mxGraphModel dx="1363" dy="1950" grid="1" gridSize="10" guides="1" tooltips="1" connect="1" arrows="1" fold="1" page="1" pageScale="1" pageWidth="850" pageHeight="1100" math="0" shadow="0">
      <root>
        <mxCell id="0" />
        <mxCell id="1" parent="0" />
        <mxCell id="bwOZ2YviIZrVA3hV3hOf-8" style="edgeStyle=orthogonalEdgeStyle;rounded=0;orthogonalLoop=1;jettySize=auto;html=1;startArrow=classic;startFill=1;endArrow=none;endFill=0;" edge="1" parent="1">
          <mxGeometry relative="1" as="geometry">
            <mxPoint x="1010" y="20.000000000000227" as="sourcePoint" />
            <mxPoint x="820" y="200" as="targetPoint" />
            <Array as="points">
              <mxPoint x="820" y="20" />
            </Array>
          </mxGeometry>
        </mxCell>
        <mxCell id="bwOZ2YviIZrVA3hV3hOf-11" value="Обработанные&lt;br&gt;данные" style="edgeLabel;html=1;align=center;verticalAlign=middle;resizable=0;points=[];" vertex="1" connectable="0" parent="bwOZ2YviIZrVA3hV3hOf-8">
          <mxGeometry x="-0.1029" y="3" relative="1" as="geometry">
            <mxPoint x="36" y="-3" as="offset" />
          </mxGeometry>
        </mxCell>
        <mxCell id="bwOZ2YviIZrVA3hV3hOf-26" style="edgeStyle=orthogonalEdgeStyle;rounded=0;orthogonalLoop=1;jettySize=auto;html=1;entryX=1;entryY=0.75;entryDx=0;entryDy=0;entryPerimeter=0;" edge="1" parent="1">
          <mxGeometry relative="1" as="geometry">
            <mxPoint x="1160" y="649.9999999999995" as="sourcePoint" />
            <mxPoint x="900" y="490" as="targetPoint" />
            <Array as="points">
              <mxPoint x="1030" y="650" />
              <mxPoint x="1030" y="490" />
            </Array>
          </mxGeometry>
        </mxCell>
        <mxCell id="bwOZ2YviIZrVA3hV3hOf-27" value="Необработанные&amp;nbsp;&lt;br&gt;&amp;nbsp; медицинские&amp;nbsp;&lt;div&gt;данные&lt;/div&gt;" style="edgeLabel;html=1;align=center;verticalAlign=middle;resizable=0;points=[];" vertex="1" connectable="0" parent="bwOZ2YviIZrVA3hV3hOf-26">
          <mxGeometry x="-0.2112" y="-1" relative="1" as="geometry">
            <mxPoint x="69" y="35" as="offset" />
          </mxGeometry>
        </mxCell>
        <mxCell id="bwOZ2YviIZrVA3hV3hOf-43" style="edgeStyle=orthogonalEdgeStyle;rounded=0;orthogonalLoop=1;jettySize=auto;html=1;entryX=1;entryY=0.5;entryDx=0;entryDy=0;entryPerimeter=0;" edge="1" parent="1">
          <mxGeometry relative="1" as="geometry">
            <mxPoint x="750" y="200" as="sourcePoint" />
            <mxPoint x="650" y="20.000000000000227" as="targetPoint" />
            <Array as="points">
              <mxPoint x="750" y="20" />
            </Array>
          </mxGeometry>
        </mxCell>
        <object placeholders="1" c4Name="Data Mart" c4Type="Container" c4Technology="Apache Kylin, Power BI" c4Description="Портал витрины данных" label="&lt;font style=&quot;font-size: 16px&quot;&gt;&lt;b&gt;%c4Name%&lt;/b&gt;&lt;/font&gt;&lt;div&gt;[%c4Type%: %c4Technology%]&lt;/div&gt;&lt;br&gt;&lt;div&gt;&lt;font style=&quot;font-size: 11px&quot;&gt;&lt;font color=&quot;#E6E6E6&quot;&gt;%c4Description%&lt;/font&gt;&lt;/div&gt;" id="bwOZ2YviIZrVA3hV3hOf-44">
          <mxCell style="rounded=1;whiteSpace=wrap;html=1;fontSize=11;labelBackgroundColor=none;fillColor=#23A2D9;fontColor=#ffffff;align=center;arcSize=10;strokeColor=#0E7DAD;metaEdit=1;resizable=0;points=[[0.25,0,0],[0.5,0,0],[0.75,0,0],[1,0.25,0],[1,0.5,0],[1,0.75,0],[0.75,1,0],[0.5,1,0],[0.25,1,0],[0,0.75,0],[0,0.5,0],[0,0.25,0]];" vertex="1" parent="1">
            <mxGeometry x="410" y="-40" width="240" height="120" as="geometry" />
          </mxCell>
        </object>
        <object placeholders="1" c4Name="BI" c4Type="Container" c4Technology="PowerBI" c4Description="Аналитика и отчеты&#xa;" label="&lt;font style=&quot;font-size: 16px&quot;&gt;&lt;b&gt;%c4Name%&lt;/b&gt;&lt;/font&gt;&lt;div&gt;[%c4Type%: %c4Technology%]&lt;/div&gt;&lt;br&gt;&lt;div&gt;&lt;font style=&quot;font-size: 11px&quot;&gt;&lt;font color=&quot;#E6E6E6&quot;&gt;%c4Description%&lt;/font&gt;&lt;/div&gt;" id="bwOZ2YviIZrVA3hV3hOf-45">
          <mxCell style="rounded=1;whiteSpace=wrap;html=1;fontSize=11;labelBackgroundColor=none;fillColor=#23A2D9;fontColor=#ffffff;align=center;arcSize=10;strokeColor=#0E7DAD;metaEdit=1;resizable=0;points=[[0.25,0,0],[0.5,0,0],[0.75,0,0],[1,0.25,0],[1,0.5,0],[1,0.75,0],[0.75,1,0],[0.5,1,0],[0.25,1,0],[0,0.75,0],[0,0.5,0],[0,0.25,0]];" vertex="1" parent="1">
            <mxGeometry x="1010" y="-40" width="240" height="120" as="geometry" />
          </mxCell>
        </object>
        <mxCell id="bwOZ2YviIZrVA3hV3hOf-50" style="edgeStyle=orthogonalEdgeStyle;rounded=0;orthogonalLoop=1;jettySize=auto;html=1;" edge="1" parent="1">
          <mxGeometry relative="1" as="geometry">
            <mxPoint x="660" y="480" as="sourcePoint" />
            <mxPoint x="425" y="480" as="targetPoint" />
          </mxGeometry>
        </mxCell>
        <mxCell id="bwOZ2YviIZrVA3hV3hOf-52" value="Данные которые нужно&lt;br&gt;обработать ИИ" style="edgeLabel;html=1;align=center;verticalAlign=middle;resizable=0;points=[];" vertex="1" connectable="0" parent="bwOZ2YviIZrVA3hV3hOf-50">
          <mxGeometry x="0.1273" y="-2" relative="1" as="geometry">
            <mxPoint as="offset" />
          </mxGeometry>
        </mxCell>
        <mxCell id="bwOZ2YviIZrVA3hV3hOf-61" style="edgeStyle=orthogonalEdgeStyle;rounded=0;orthogonalLoop=1;jettySize=auto;html=1;" edge="1" parent="1">
          <mxGeometry relative="1" as="geometry">
            <mxPoint x="780" y="400" as="sourcePoint" />
            <mxPoint x="780" y="320" as="targetPoint" />
          </mxGeometry>
        </mxCell>
        <mxCell id="bwOZ2YviIZrVA3hV3hOf-62" value="Необработанные&lt;br&gt;данные" style="edgeLabel;html=1;align=center;verticalAlign=middle;resizable=0;points=[];" vertex="1" connectable="0" parent="bwOZ2YviIZrVA3hV3hOf-61">
          <mxGeometry x="-0.2316" y="-1" relative="1" as="geometry">
            <mxPoint x="-1" y="-10" as="offset" />
          </mxGeometry>
        </mxCell>
        <object placeholders="1" c4Name="DataBus" c4Type="Container" c4Technology="Apache Kafka" c4Description="Шина данных для обмена в компании" label="&lt;font style=&quot;font-size: 16px&quot;&gt;&lt;b&gt;%c4Name%&lt;/b&gt;&lt;/font&gt;&lt;div&gt;[%c4Type%:&amp;nbsp;%c4Technology%]&lt;/div&gt;&lt;br&gt;&lt;div&gt;&lt;font style=&quot;font-size: 11px&quot;&gt;&lt;font color=&quot;#E6E6E6&quot;&gt;%c4Description%&lt;/font&gt;&lt;/div&gt;" id="bwOZ2YviIZrVA3hV3hOf-48">
          <mxCell style="shape=cylinder3;size=15;direction=south;whiteSpace=wrap;html=1;boundedLbl=1;rounded=0;labelBackgroundColor=none;fillColor=#23A2D9;fontSize=12;fontColor=#ffffff;align=center;strokeColor=#0E7DAD;metaEdit=1;points=[[0.5,0,0],[1,0.25,0],[1,0.5,0],[1,0.75,0],[0.5,1,0],[0,0.75,0],[0,0.5,0],[0,0.25,0]];resizable=0;" vertex="1" parent="1">
            <mxGeometry x="660" y="400" width="240" height="120" as="geometry" />
          </mxCell>
        </object>
        <mxCell id="bwOZ2YviIZrVA3hV3hOf-53" style="edgeStyle=orthogonalEdgeStyle;rounded=0;orthogonalLoop=1;jettySize=auto;html=1;" edge="1" parent="1">
          <mxGeometry relative="1" as="geometry">
            <mxPoint x="425" y="440" as="sourcePoint" />
            <mxPoint x="660" y="440" as="targetPoint" />
          </mxGeometry>
        </mxCell>
        <mxCell id="bwOZ2YviIZrVA3hV3hOf-54" value="Обработанные ИИ&lt;br&gt;данные" style="edgeLabel;html=1;align=center;verticalAlign=middle;resizable=0;points=[];" vertex="1" connectable="0" parent="bwOZ2YviIZrVA3hV3hOf-53">
          <mxGeometry x="-0.2511" y="1" relative="1" as="geometry">
            <mxPoint x="17" as="offset" />
          </mxGeometry>
        </mxCell>
        <object placeholders="1" c4Name="AI" c4Type="Container" c4Technology="Python" c4Description="ИИ сервисы для обработки данных" label="&lt;font style=&quot;font-size: 16px&quot;&gt;&lt;b&gt;%c4Name%&lt;/b&gt;&lt;/font&gt;&lt;div&gt;[%c4Type%: %c4Technology%]&lt;/div&gt;&lt;br&gt;&lt;div&gt;&lt;font style=&quot;font-size: 11px&quot;&gt;&lt;font color=&quot;#E6E6E6&quot;&gt;%c4Description%&lt;/font&gt;&lt;/div&gt;" id="bwOZ2YviIZrVA3hV3hOf-49">
          <mxCell style="rounded=1;whiteSpace=wrap;html=1;fontSize=11;labelBackgroundColor=none;fillColor=#23A2D9;fontColor=#ffffff;align=center;arcSize=10;strokeColor=#0E7DAD;metaEdit=1;resizable=0;points=[[0.25,0,0],[0.5,0,0],[0.75,0,0],[1,0.25,0],[1,0.5,0],[1,0.75,0],[0.75,1,0],[0.5,1,0],[0.25,1,0],[0,0.75,0],[0,0.5,0],[0,0.25,0]];" vertex="1" parent="1">
            <mxGeometry x="185" y="400" width="240" height="120" as="geometry" />
          </mxCell>
        </object>
        <mxCell id="bwOZ2YviIZrVA3hV3hOf-56" style="edgeStyle=orthogonalEdgeStyle;rounded=0;orthogonalLoop=1;jettySize=auto;html=1;" edge="1" parent="1">
          <mxGeometry relative="1" as="geometry">
            <mxPoint x="1170" y="449.99999999999955" as="sourcePoint" />
            <mxPoint x="900" y="449.99999999999955" as="targetPoint" />
            <Array as="points">
              <mxPoint x="1100" y="450" />
              <mxPoint x="1100" y="450" />
            </Array>
          </mxGeometry>
        </mxCell>
        <mxCell id="bwOZ2YviIZrVA3hV3hOf-57" value="Необработанные финансовые&lt;br&gt;данные" style="edgeLabel;html=1;align=center;verticalAlign=middle;resizable=0;points=[];" vertex="1" connectable="0" parent="bwOZ2YviIZrVA3hV3hOf-56">
          <mxGeometry x="-0.2478" y="1" relative="1" as="geometry">
            <mxPoint as="offset" />
          </mxGeometry>
        </mxCell>
        <object placeholders="1" c4Name="Fintech" c4Type="Container" c4Technology="Go, Java" c4Description="Финтех-сервисы" label="&lt;font style=&quot;font-size: 16px&quot;&gt;&lt;b&gt;%c4Name%&lt;/b&gt;&lt;/font&gt;&lt;div&gt;[%c4Type%: %c4Technology%]&lt;/div&gt;&lt;br&gt;&lt;div&gt;&lt;font style=&quot;font-size: 11px&quot;&gt;&lt;font color=&quot;#E6E6E6&quot;&gt;%c4Description%&lt;/font&gt;&lt;/div&gt;" id="bwOZ2YviIZrVA3hV3hOf-55">
          <mxCell style="rounded=1;whiteSpace=wrap;html=1;fontSize=11;labelBackgroundColor=none;fillColor=#23A2D9;fontColor=#ffffff;align=center;arcSize=10;strokeColor=#0E7DAD;metaEdit=1;resizable=0;points=[[0.25,0,0],[0.5,0,0],[0.75,0,0],[1,0.25,0],[1,0.5,0],[1,0.75,0],[0.75,1,0],[0.5,1,0],[0.25,1,0],[0,0.75,0],[0,0.5,0],[0,0.25,0]];" vertex="1" parent="1">
            <mxGeometry x="1170" y="390" width="240" height="120" as="geometry" />
          </mxCell>
        </object>
        <object placeholders="1" c4Name="Client Operator" c4Type="Container" c4Technology="React, Python" c4Description="Клиентский интерфейс оператора" label="&lt;font style=&quot;font-size: 16px&quot;&gt;&lt;b&gt;%c4Name%&lt;/b&gt;&lt;/font&gt;&lt;div&gt;[%c4Type%: %c4Technology%]&lt;/div&gt;&lt;br&gt;&lt;div&gt;&lt;font style=&quot;font-size: 11px&quot;&gt;&lt;font color=&quot;#E6E6E6&quot;&gt;%c4Description%&lt;/font&gt;&lt;/div&gt;" id="bwOZ2YviIZrVA3hV3hOf-58">
          <mxCell style="rounded=1;whiteSpace=wrap;html=1;fontSize=11;labelBackgroundColor=none;fillColor=#23A2D9;fontColor=#ffffff;align=center;arcSize=10;strokeColor=#0E7DAD;metaEdit=1;resizable=0;points=[[0.25,0,0],[0.5,0,0],[0.75,0,0],[1,0.25,0],[1,0.5,0],[1,0.75,0],[0.75,1,0],[0.5,1,0],[0.25,1,0],[0,0.75,0],[0,0.5,0],[0,0.25,0]];" vertex="1" parent="1">
            <mxGeometry x="1155" y="590" width="240" height="120" as="geometry" />
          </mxCell>
        </object>
        <mxCell id="bwOZ2YviIZrVA3hV3hOf-68" value="Обработанные&lt;br&gt;данные" style="edgeLabel;html=1;align=center;verticalAlign=middle;resizable=0;points=[];" vertex="1" connectable="0" parent="1">
          <mxGeometry x="880.0044444444445" y="20" as="geometry">
            <mxPoint x="-171" y="-3" as="offset" />
          </mxGeometry>
        </mxCell>
        <mxCell id="bwOZ2YviIZrVA3hV3hOf-70" style="edgeStyle=orthogonalEdgeStyle;rounded=0;orthogonalLoop=1;jettySize=auto;html=1;" edge="1" parent="1" source="bwOZ2YviIZrVA3hV3hOf-69" target="bwOZ2YviIZrVA3hV3hOf-44">
          <mxGeometry relative="1" as="geometry" />
        </mxCell>
        <mxCell id="bwOZ2YviIZrVA3hV3hOf-71" value="Получает данные по домену в зависимости от доступа" style="edgeLabel;html=1;align=center;verticalAlign=middle;resizable=0;points=[];" vertex="1" connectable="0" parent="bwOZ2YviIZrVA3hV3hOf-70">
          <mxGeometry x="-0.0704" y="2" relative="1" as="geometry">
            <mxPoint as="offset" />
          </mxGeometry>
        </mxCell>
        <object placeholders="1" c4Name="Сотрудник" c4Type="Person" c4Description="Сотрудник компании" label="&lt;font style=&quot;font-size: 16px&quot;&gt;&lt;b&gt;%c4Name%&lt;/b&gt;&lt;/font&gt;&lt;div&gt;[%c4Type%]&lt;/div&gt;&lt;br&gt;&lt;div&gt;&lt;font style=&quot;font-size: 11px&quot;&gt;&lt;font color=&quot;#cccccc&quot;&gt;%c4Description%&lt;/font&gt;&lt;/div&gt;" id="bwOZ2YviIZrVA3hV3hOf-69">
          <mxCell style="html=1;fontSize=11;dashed=0;whiteSpace=wrap;fillColor=#083F75;strokeColor=#06315C;fontColor=#ffffff;shape=mxgraph.c4.person2;align=center;metaEdit=1;points=[[0.5,0,0],[1,0.5,0],[1,0.75,0],[0.75,1,0],[0.5,1,0],[0.25,1,0],[0,0.75,0],[0,0.5,0]];resizable=0;" vertex="1" parent="1">
            <mxGeometry x="430" y="-280" width="200" height="180" as="geometry" />
          </mxCell>
        </object>
        <mxCell id="bwOZ2YviIZrVA3hV3hOf-73" style="edgeStyle=orthogonalEdgeStyle;rounded=0;orthogonalLoop=1;jettySize=auto;html=1;" edge="1" parent="1" source="bwOZ2YviIZrVA3hV3hOf-72" target="bwOZ2YviIZrVA3hV3hOf-45">
          <mxGeometry relative="1" as="geometry" />
        </mxCell>
        <mxCell id="bwOZ2YviIZrVA3hV3hOf-74" value="Анализирует данные и составляет отчеты" style="edgeLabel;html=1;align=center;verticalAlign=middle;resizable=0;points=[];" vertex="1" connectable="0" parent="bwOZ2YviIZrVA3hV3hOf-73">
          <mxGeometry x="0.273" y="1" relative="1" as="geometry">
            <mxPoint x="9" y="-14" as="offset" />
          </mxGeometry>
        </mxCell>
        <object placeholders="1" c4Name="Аналитик" c4Type="Person" c4Description="Аналитик компании" label="&lt;font style=&quot;font-size: 16px&quot;&gt;&lt;b&gt;%c4Name%&lt;/b&gt;&lt;/font&gt;&lt;div&gt;[%c4Type%]&lt;/div&gt;&lt;br&gt;&lt;div&gt;&lt;font style=&quot;font-size: 11px&quot;&gt;&lt;font color=&quot;#cccccc&quot;&gt;%c4Description%&lt;/font&gt;&lt;/div&gt;" id="bwOZ2YviIZrVA3hV3hOf-72">
          <mxCell style="html=1;fontSize=11;dashed=0;whiteSpace=wrap;fillColor=#083F75;strokeColor=#06315C;fontColor=#ffffff;shape=mxgraph.c4.person2;align=center;metaEdit=1;points=[[0.5,0,0],[1,0.5,0],[1,0.75,0],[0.75,1,0],[0.5,1,0],[0.25,1,0],[0,0.75,0],[0,0.5,0]];resizable=0;" vertex="1" parent="1">
            <mxGeometry x="1030" y="-290" width="200" height="180" as="geometry" />
          </mxCell>
        </object>
        <object placeholders="1" c4Name="Data Platform" c4Type="Container" c4Technology="S3, Dremio, Nessie, Greenplum" c4Description="Сервих для хранения данных, DWH + Data Lake, к котрому подключены ETL процессы  черезе Airflow" label="&lt;font style=&quot;font-size: 16px&quot;&gt;&lt;b&gt;%c4Name%&lt;/b&gt;&lt;/font&gt;&lt;div&gt;[%c4Type%: %c4Technology%]&lt;/div&gt;&lt;br&gt;&lt;div&gt;&lt;font style=&quot;font-size: 11px&quot;&gt;&lt;font color=&quot;#E6E6E6&quot;&gt;%c4Description%&lt;/font&gt;&lt;/div&gt;" id="OkrxNeTbEz5GHLDMoMom-1">
          <mxCell style="rounded=1;whiteSpace=wrap;html=1;fontSize=11;labelBackgroundColor=none;fillColor=#23A2D9;fontColor=#ffffff;align=center;arcSize=10;strokeColor=#0E7DAD;metaEdit=1;resizable=0;points=[[0.25,0,0],[0.5,0,0],[0.75,0,0],[1,0.25,0],[1,0.5,0],[1,0.75,0],[0.75,1,0],[0.5,1,0],[0.25,1,0],[0,0.75,0],[0,0.5,0],[0,0.25,0]];" vertex="1" parent="1">
            <mxGeometry x="660" y="200" width="240" height="120" as="geometry" />
          </mxCell>
        </object>
      </root>
    </mxGraphModel>
  </diagram>
  <diagram id="ZLLIbMvFmGpmI_b8PYch" name="Components">
    <mxGraphModel dx="1468" dy="2084" grid="1" gridSize="10" guides="1" tooltips="1" connect="1" arrows="1" fold="1" page="1" pageScale="1" pageWidth="827" pageHeight="1169" math="0" shadow="0">
      <root>
        <mxCell id="0" />
        <mxCell id="1" parent="0" />
        <mxCell id="7RPDZfCtCsRfjojDRyWo-28" value="" style="rounded=0;whiteSpace=wrap;html=1;fillColor=none;dashed=1;" vertex="1" parent="1">
          <mxGeometry x="440" y="140" width="770" height="510" as="geometry" />
        </mxCell>
        <mxCell id="7RPDZfCtCsRfjojDRyWo-1" style="edgeStyle=orthogonalEdgeStyle;rounded=0;orthogonalLoop=1;jettySize=auto;html=1;startArrow=classic;startFill=1;endArrow=none;endFill=0;" edge="1" parent="1">
          <mxGeometry relative="1" as="geometry">
            <mxPoint x="1010" y="20.000000000000227" as="sourcePoint" />
            <mxPoint x="820" y="200" as="targetPoint" />
            <Array as="points">
              <mxPoint x="820" y="20" />
            </Array>
          </mxGeometry>
        </mxCell>
        <mxCell id="7RPDZfCtCsRfjojDRyWo-2" value="Обработанные&lt;br&gt;данные" style="edgeLabel;html=1;align=center;verticalAlign=middle;resizable=0;points=[];" vertex="1" connectable="0" parent="7RPDZfCtCsRfjojDRyWo-1">
          <mxGeometry x="-0.1029" y="3" relative="1" as="geometry">
            <mxPoint x="36" y="-3" as="offset" />
          </mxGeometry>
        </mxCell>
        <mxCell id="7RPDZfCtCsRfjojDRyWo-3" style="edgeStyle=orthogonalEdgeStyle;rounded=0;orthogonalLoop=1;jettySize=auto;html=1;entryX=1;entryY=0.75;entryDx=0;entryDy=0;entryPerimeter=0;" edge="1" parent="1">
          <mxGeometry relative="1" as="geometry">
            <mxPoint x="1160" y="979.9999999999995" as="sourcePoint" />
            <mxPoint x="900" y="820" as="targetPoint" />
            <Array as="points">
              <mxPoint x="1030" y="980" />
              <mxPoint x="1030" y="820" />
            </Array>
          </mxGeometry>
        </mxCell>
        <mxCell id="7RPDZfCtCsRfjojDRyWo-4" value="Необработанные&amp;nbsp;&lt;br&gt;&amp;nbsp; медицинские&amp;nbsp;&lt;div&gt;данные&lt;/div&gt;" style="edgeLabel;html=1;align=center;verticalAlign=middle;resizable=0;points=[];" vertex="1" connectable="0" parent="7RPDZfCtCsRfjojDRyWo-3">
          <mxGeometry x="-0.2112" y="-1" relative="1" as="geometry">
            <mxPoint x="69" y="35" as="offset" />
          </mxGeometry>
        </mxCell>
        <mxCell id="7RPDZfCtCsRfjojDRyWo-5" style="edgeStyle=orthogonalEdgeStyle;rounded=0;orthogonalLoop=1;jettySize=auto;html=1;entryX=1;entryY=0.5;entryDx=0;entryDy=0;entryPerimeter=0;exitX=0.32;exitY=0.018;exitDx=0;exitDy=0;exitPerimeter=0;" edge="1" parent="1" source="osoWTUKzXkoyfH06XHp5-4">
          <mxGeometry relative="1" as="geometry">
            <mxPoint x="750" y="200" as="sourcePoint" />
            <mxPoint x="650" y="20.000000000000227" as="targetPoint" />
            <Array as="points">
              <mxPoint x="750" y="202" />
              <mxPoint x="750" y="20" />
            </Array>
          </mxGeometry>
        </mxCell>
        <object placeholders="1" c4Name="Data Mart" c4Type="Container" c4Technology="Apache Kylin, Power BI" c4Description="Портал витрины данных" label="&lt;font style=&quot;font-size: 16px&quot;&gt;&lt;b&gt;%c4Name%&lt;/b&gt;&lt;/font&gt;&lt;div&gt;[%c4Type%: %c4Technology%]&lt;/div&gt;&lt;br&gt;&lt;div&gt;&lt;font style=&quot;font-size: 11px&quot;&gt;&lt;font color=&quot;#E6E6E6&quot;&gt;%c4Description%&lt;/font&gt;&lt;/div&gt;" id="7RPDZfCtCsRfjojDRyWo-6">
          <mxCell style="rounded=1;whiteSpace=wrap;html=1;fontSize=11;labelBackgroundColor=none;fillColor=#B3B3B3;fontColor=#ffffff;align=center;arcSize=10;strokeColor=#0E7DAD;metaEdit=1;resizable=0;points=[[0.25,0,0],[0.5,0,0],[0.75,0,0],[1,0.25,0],[1,0.5,0],[1,0.75,0],[0.75,1,0],[0.5,1,0],[0.25,1,0],[0,0.75,0],[0,0.5,0],[0,0.25,0]];" vertex="1" parent="1">
            <mxGeometry x="410" y="-40" width="240" height="120" as="geometry" />
          </mxCell>
        </object>
        <object placeholders="1" c4Name="BI" c4Type="Container" c4Technology="PowerBI" c4Description="Аналитика и отчеты&#xa;" label="&lt;font style=&quot;font-size: 16px&quot;&gt;&lt;b&gt;%c4Name%&lt;/b&gt;&lt;/font&gt;&lt;div&gt;[%c4Type%: %c4Technology%]&lt;/div&gt;&lt;br&gt;&lt;div&gt;&lt;font style=&quot;font-size: 11px&quot;&gt;&lt;font color=&quot;#E6E6E6&quot;&gt;%c4Description%&lt;/font&gt;&lt;/div&gt;" id="7RPDZfCtCsRfjojDRyWo-7">
          <mxCell style="rounded=1;whiteSpace=wrap;html=1;fontSize=11;labelBackgroundColor=none;fillColor=#B3B3B3;fontColor=#ffffff;align=center;arcSize=10;strokeColor=#0E7DAD;metaEdit=1;resizable=0;points=[[0.25,0,0],[0.5,0,0],[0.75,0,0],[1,0.25,0],[1,0.5,0],[1,0.75,0],[0.75,1,0],[0.5,1,0],[0.25,1,0],[0,0.75,0],[0,0.5,0],[0,0.25,0]];" vertex="1" parent="1">
            <mxGeometry x="1010" y="-40" width="240" height="120" as="geometry" />
          </mxCell>
        </object>
        <mxCell id="7RPDZfCtCsRfjojDRyWo-8" style="edgeStyle=orthogonalEdgeStyle;rounded=0;orthogonalLoop=1;jettySize=auto;html=1;" edge="1" parent="1">
          <mxGeometry relative="1" as="geometry">
            <mxPoint x="660" y="810" as="sourcePoint" />
            <mxPoint x="425" y="810" as="targetPoint" />
          </mxGeometry>
        </mxCell>
        <mxCell id="7RPDZfCtCsRfjojDRyWo-9" value="Данные которые нужно&lt;br&gt;обработать ИИ" style="edgeLabel;html=1;align=center;verticalAlign=middle;resizable=0;points=[];" vertex="1" connectable="0" parent="7RPDZfCtCsRfjojDRyWo-8">
          <mxGeometry x="0.1273" y="-2" relative="1" as="geometry">
            <mxPoint as="offset" />
          </mxGeometry>
        </mxCell>
        <object placeholders="1" c4Name="DataBus" c4Type="Container" c4Technology="Apache Kafka" c4Description="Шина данных для обмена в компании" label="&lt;font style=&quot;font-size: 16px&quot;&gt;&lt;b&gt;%c4Name%&lt;/b&gt;&lt;/font&gt;&lt;div&gt;[%c4Type%:&amp;nbsp;%c4Technology%]&lt;/div&gt;&lt;br&gt;&lt;div&gt;&lt;font style=&quot;font-size: 11px&quot;&gt;&lt;font color=&quot;#E6E6E6&quot;&gt;%c4Description%&lt;/font&gt;&lt;/div&gt;" id="7RPDZfCtCsRfjojDRyWo-12">
          <mxCell style="shape=cylinder3;size=15;direction=south;whiteSpace=wrap;html=1;boundedLbl=1;rounded=0;labelBackgroundColor=none;fillColor=#B3B3B3;fontSize=12;fontColor=#ffffff;align=center;strokeColor=#0E7DAD;metaEdit=1;points=[[0.5,0,0],[1,0.25,0],[1,0.5,0],[1,0.75,0],[0.5,1,0],[0,0.75,0],[0,0.5,0],[0,0.25,0]];resizable=0;" vertex="1" parent="1">
            <mxGeometry x="660" y="730" width="240" height="120" as="geometry" />
          </mxCell>
        </object>
        <mxCell id="7RPDZfCtCsRfjojDRyWo-13" style="edgeStyle=orthogonalEdgeStyle;rounded=0;orthogonalLoop=1;jettySize=auto;html=1;" edge="1" parent="1">
          <mxGeometry relative="1" as="geometry">
            <mxPoint x="425" y="770" as="sourcePoint" />
            <mxPoint x="660" y="770" as="targetPoint" />
          </mxGeometry>
        </mxCell>
        <mxCell id="7RPDZfCtCsRfjojDRyWo-14" value="Обработанные ИИ&lt;br&gt;данные" style="edgeLabel;html=1;align=center;verticalAlign=middle;resizable=0;points=[];" vertex="1" connectable="0" parent="7RPDZfCtCsRfjojDRyWo-13">
          <mxGeometry x="-0.2511" y="1" relative="1" as="geometry">
            <mxPoint x="17" as="offset" />
          </mxGeometry>
        </mxCell>
        <object placeholders="1" c4Name="AI" c4Type="Container" c4Technology="Python" c4Description="ИИ сервисы для обработки данных" label="&lt;font style=&quot;font-size: 16px&quot;&gt;&lt;b&gt;%c4Name%&lt;/b&gt;&lt;/font&gt;&lt;div&gt;[%c4Type%: %c4Technology%]&lt;/div&gt;&lt;br&gt;&lt;div&gt;&lt;font style=&quot;font-size: 11px&quot;&gt;&lt;font color=&quot;#E6E6E6&quot;&gt;%c4Description%&lt;/font&gt;&lt;/div&gt;" id="7RPDZfCtCsRfjojDRyWo-15">
          <mxCell style="rounded=1;whiteSpace=wrap;html=1;fontSize=11;labelBackgroundColor=none;fillColor=#B3B3B3;fontColor=#ffffff;align=center;arcSize=10;strokeColor=#0E7DAD;metaEdit=1;resizable=0;points=[[0.25,0,0],[0.5,0,0],[0.75,0,0],[1,0.25,0],[1,0.5,0],[1,0.75,0],[0.75,1,0],[0.5,1,0],[0.25,1,0],[0,0.75,0],[0,0.5,0],[0,0.25,0]];" vertex="1" parent="1">
            <mxGeometry x="185" y="730" width="240" height="120" as="geometry" />
          </mxCell>
        </object>
        <mxCell id="7RPDZfCtCsRfjojDRyWo-16" style="edgeStyle=orthogonalEdgeStyle;rounded=0;orthogonalLoop=1;jettySize=auto;html=1;" edge="1" parent="1">
          <mxGeometry relative="1" as="geometry">
            <mxPoint x="1170" y="779.9999999999995" as="sourcePoint" />
            <mxPoint x="900" y="779.9999999999995" as="targetPoint" />
            <Array as="points">
              <mxPoint x="1100" y="780" />
              <mxPoint x="1100" y="780" />
            </Array>
          </mxGeometry>
        </mxCell>
        <mxCell id="7RPDZfCtCsRfjojDRyWo-17" value="Необработанные финансовые&lt;br&gt;данные" style="edgeLabel;html=1;align=center;verticalAlign=middle;resizable=0;points=[];" vertex="1" connectable="0" parent="7RPDZfCtCsRfjojDRyWo-16">
          <mxGeometry x="-0.2478" y="1" relative="1" as="geometry">
            <mxPoint as="offset" />
          </mxGeometry>
        </mxCell>
        <object placeholders="1" c4Name="Fintech" c4Type="Container" c4Technology="Go, Java" c4Description="Финтех-сервисы" label="&lt;font style=&quot;font-size: 16px&quot;&gt;&lt;b&gt;%c4Name%&lt;/b&gt;&lt;/font&gt;&lt;div&gt;[%c4Type%: %c4Technology%]&lt;/div&gt;&lt;br&gt;&lt;div&gt;&lt;font style=&quot;font-size: 11px&quot;&gt;&lt;font color=&quot;#E6E6E6&quot;&gt;%c4Description%&lt;/font&gt;&lt;/div&gt;" id="7RPDZfCtCsRfjojDRyWo-18">
          <mxCell style="rounded=1;whiteSpace=wrap;html=1;fontSize=11;labelBackgroundColor=none;fillColor=#B3B3B3;fontColor=#ffffff;align=center;arcSize=10;strokeColor=#0E7DAD;metaEdit=1;resizable=0;points=[[0.25,0,0],[0.5,0,0],[0.75,0,0],[1,0.25,0],[1,0.5,0],[1,0.75,0],[0.75,1,0],[0.5,1,0],[0.25,1,0],[0,0.75,0],[0,0.5,0],[0,0.25,0]];" vertex="1" parent="1">
            <mxGeometry x="1170" y="720" width="240" height="120" as="geometry" />
          </mxCell>
        </object>
        <object placeholders="1" c4Name="Client Operator" c4Type="Container" c4Technology="React, Python" c4Description="Клиентский интерфейс оператора" label="&lt;font style=&quot;font-size: 16px&quot;&gt;&lt;b&gt;%c4Name%&lt;/b&gt;&lt;/font&gt;&lt;div&gt;[%c4Type%: %c4Technology%]&lt;/div&gt;&lt;br&gt;&lt;div&gt;&lt;font style=&quot;font-size: 11px&quot;&gt;&lt;font color=&quot;#E6E6E6&quot;&gt;%c4Description%&lt;/font&gt;&lt;/div&gt;" id="7RPDZfCtCsRfjojDRyWo-19">
          <mxCell style="rounded=1;whiteSpace=wrap;html=1;fontSize=11;labelBackgroundColor=none;fillColor=#B3B3B3;fontColor=#ffffff;align=center;arcSize=10;strokeColor=#0E7DAD;metaEdit=1;resizable=0;points=[[0.25,0,0],[0.5,0,0],[0.75,0,0],[1,0.25,0],[1,0.5,0],[1,0.75,0],[0.75,1,0],[0.5,1,0],[0.25,1,0],[0,0.75,0],[0,0.5,0],[0,0.25,0]];" vertex="1" parent="1">
            <mxGeometry x="1155" y="920" width="240" height="120" as="geometry" />
          </mxCell>
        </object>
        <mxCell id="7RPDZfCtCsRfjojDRyWo-20" value="Обработанные&lt;br&gt;данные" style="edgeLabel;html=1;align=center;verticalAlign=middle;resizable=0;points=[];" vertex="1" connectable="0" parent="1">
          <mxGeometry x="880.0044444444445" y="20" as="geometry">
            <mxPoint x="-171" y="-3" as="offset" />
          </mxGeometry>
        </mxCell>
        <mxCell id="7RPDZfCtCsRfjojDRyWo-21" style="edgeStyle=orthogonalEdgeStyle;rounded=0;orthogonalLoop=1;jettySize=auto;html=1;" edge="1" parent="1" source="7RPDZfCtCsRfjojDRyWo-23" target="7RPDZfCtCsRfjojDRyWo-6">
          <mxGeometry relative="1" as="geometry" />
        </mxCell>
        <mxCell id="7RPDZfCtCsRfjojDRyWo-22" value="Получает данные по домену в зависимости от доступа" style="edgeLabel;html=1;align=center;verticalAlign=middle;resizable=0;points=[];" vertex="1" connectable="0" parent="7RPDZfCtCsRfjojDRyWo-21">
          <mxGeometry x="-0.0704" y="2" relative="1" as="geometry">
            <mxPoint as="offset" />
          </mxGeometry>
        </mxCell>
        <object placeholders="1" c4Name="Сотрудник" c4Type="Person" c4Description="Сотрудник компании" label="&lt;font style=&quot;font-size: 16px&quot;&gt;&lt;b&gt;%c4Name%&lt;/b&gt;&lt;/font&gt;&lt;div&gt;[%c4Type%]&lt;/div&gt;&lt;br&gt;&lt;div&gt;&lt;font style=&quot;font-size: 11px&quot;&gt;&lt;font color=&quot;#cccccc&quot;&gt;%c4Description%&lt;/font&gt;&lt;/div&gt;" id="7RPDZfCtCsRfjojDRyWo-23">
          <mxCell style="html=1;fontSize=11;dashed=0;whiteSpace=wrap;fillColor=#083F75;strokeColor=#06315C;fontColor=#ffffff;shape=mxgraph.c4.person2;align=center;metaEdit=1;points=[[0.5,0,0],[1,0.5,0],[1,0.75,0],[0.75,1,0],[0.5,1,0],[0.25,1,0],[0,0.75,0],[0,0.5,0]];resizable=0;" vertex="1" parent="1">
            <mxGeometry x="430" y="-280" width="200" height="180" as="geometry" />
          </mxCell>
        </object>
        <mxCell id="7RPDZfCtCsRfjojDRyWo-24" style="edgeStyle=orthogonalEdgeStyle;rounded=0;orthogonalLoop=1;jettySize=auto;html=1;" edge="1" parent="1" source="7RPDZfCtCsRfjojDRyWo-26" target="7RPDZfCtCsRfjojDRyWo-7">
          <mxGeometry relative="1" as="geometry" />
        </mxCell>
        <mxCell id="7RPDZfCtCsRfjojDRyWo-25" value="Анализирует данные и составляет отчеты" style="edgeLabel;html=1;align=center;verticalAlign=middle;resizable=0;points=[];" vertex="1" connectable="0" parent="7RPDZfCtCsRfjojDRyWo-24">
          <mxGeometry x="0.273" y="1" relative="1" as="geometry">
            <mxPoint x="9" y="-14" as="offset" />
          </mxGeometry>
        </mxCell>
        <object placeholders="1" c4Name="Аналитик" c4Type="Person" c4Description="Аналитик компании" label="&lt;font style=&quot;font-size: 16px&quot;&gt;&lt;b&gt;%c4Name%&lt;/b&gt;&lt;/font&gt;&lt;div&gt;[%c4Type%]&lt;/div&gt;&lt;br&gt;&lt;div&gt;&lt;font style=&quot;font-size: 11px&quot;&gt;&lt;font color=&quot;#cccccc&quot;&gt;%c4Description%&lt;/font&gt;&lt;/div&gt;" id="7RPDZfCtCsRfjojDRyWo-26">
          <mxCell style="html=1;fontSize=11;dashed=0;whiteSpace=wrap;fillColor=#083F75;strokeColor=#06315C;fontColor=#ffffff;shape=mxgraph.c4.person2;align=center;metaEdit=1;points=[[0.5,0,0],[1,0.5,0],[1,0.75,0],[0.75,1,0],[0.5,1,0],[0.25,1,0],[0,0.75,0],[0,0.5,0]];resizable=0;" vertex="1" parent="1">
            <mxGeometry x="1030" y="-290" width="200" height="180" as="geometry" />
          </mxCell>
        </object>
        <mxCell id="7RPDZfCtCsRfjojDRyWo-29" value="Data Platform" style="text;html=1;align=center;verticalAlign=middle;whiteSpace=wrap;rounded=0;" vertex="1" parent="1">
          <mxGeometry x="450" y="610" width="80" height="30" as="geometry" />
        </mxCell>
        <object placeholders="1" c4Name="Data Lake" c4Type="Component" c4Technology="S3, Dremio, Nessie" c4Description="Хранилище неструктурированных данных" label="&lt;font style=&quot;font-size: 16px&quot;&gt;&lt;b&gt;%c4Name%&lt;/b&gt;&lt;/font&gt;&lt;div&gt;[%c4Type%: %c4Technology%]&lt;/div&gt;&lt;br&gt;&lt;div&gt;&lt;font style=&quot;font-size: 11px&quot;&gt;%c4Description%&lt;/font&gt;&lt;/div&gt;" id="7RPDZfCtCsRfjojDRyWo-30">
          <mxCell style="rounded=1;whiteSpace=wrap;html=1;labelBackgroundColor=none;fillColor=#63BEF2;fontColor=#ffffff;align=center;arcSize=6;strokeColor=#2086C9;metaEdit=1;resizable=0;points=[[0.25,0,0],[0.5,0,0],[0.75,0,0],[1,0.25,0],[1,0.5,0],[1,0.75,0],[0.75,1,0],[0.5,1,0],[0.25,1,0],[0,0.75,0],[0,0.5,0],[0,0.25,0]];" vertex="1" parent="1">
            <mxGeometry x="860" y="450" width="240" height="120" as="geometry" />
          </mxCell>
        </object>
        <mxCell id="7RPDZfCtCsRfjojDRyWo-31" style="edgeStyle=orthogonalEdgeStyle;rounded=0;orthogonalLoop=1;jettySize=auto;html=1;entryX=0.5;entryY=1;entryDx=0;entryDy=0;entryPerimeter=0;" edge="1" parent="1" source="7RPDZfCtCsRfjojDRyWo-12" target="osoWTUKzXkoyfH06XHp5-1">
          <mxGeometry relative="1" as="geometry">
            <Array as="points">
              <mxPoint x="780" y="610" />
              <mxPoint x="590" y="610" />
            </Array>
          </mxGeometry>
        </mxCell>
        <mxCell id="7RPDZfCtCsRfjojDRyWo-32" value="Необработанные&amp;nbsp;&lt;br&gt;данные" style="edgeLabel;html=1;align=center;verticalAlign=middle;resizable=0;points=[];" vertex="1" connectable="0" parent="7RPDZfCtCsRfjojDRyWo-31">
          <mxGeometry x="0.0539" y="5" relative="1" as="geometry">
            <mxPoint as="offset" />
          </mxGeometry>
        </mxCell>
        <mxCell id="osoWTUKzXkoyfH06XHp5-5" style="edgeStyle=orthogonalEdgeStyle;rounded=0;orthogonalLoop=1;jettySize=auto;html=1;" edge="1" parent="1" source="osoWTUKzXkoyfH06XHp5-1" target="osoWTUKzXkoyfH06XHp5-4">
          <mxGeometry relative="1" as="geometry" />
        </mxCell>
        <mxCell id="osoWTUKzXkoyfH06XHp5-6" value="Выгружает&amp;nbsp;&lt;br&gt;обработанные данные" style="edgeLabel;html=1;align=center;verticalAlign=middle;resizable=0;points=[];" vertex="1" connectable="0" parent="osoWTUKzXkoyfH06XHp5-5">
          <mxGeometry x="-0.1519" y="2" relative="1" as="geometry">
            <mxPoint as="offset" />
          </mxGeometry>
        </mxCell>
        <mxCell id="GUhgio1p0fQL5iSURagH-4" style="edgeStyle=orthogonalEdgeStyle;rounded=0;orthogonalLoop=1;jettySize=auto;html=1;" edge="1" parent="1">
          <mxGeometry relative="1" as="geometry">
            <mxPoint x="710" y="490" as="sourcePoint" />
            <mxPoint x="860" y="490" as="targetPoint" />
          </mxGeometry>
        </mxCell>
        <mxCell id="GUhgio1p0fQL5iSURagH-5" value="Забирает &lt;br&gt;необработанные&lt;br&gt;данные" style="edgeLabel;html=1;align=center;verticalAlign=middle;resizable=0;points=[];" vertex="1" connectable="0" parent="GUhgio1p0fQL5iSURagH-4">
          <mxGeometry x="0.0063" y="1" relative="1" as="geometry">
            <mxPoint as="offset" />
          </mxGeometry>
        </mxCell>
        <object placeholders="1" c4Name="ETL" c4Type="Component" c4Technology="Airflow, Python" c4Description="ETL процессы для обработки данных" label="&lt;font style=&quot;font-size: 16px&quot;&gt;&lt;b&gt;%c4Name%&lt;/b&gt;&lt;/font&gt;&lt;div&gt;[%c4Type%: %c4Technology%]&lt;/div&gt;&lt;br&gt;&lt;div&gt;&lt;font style=&quot;font-size: 11px&quot;&gt;%c4Description%&lt;/font&gt;&lt;/div&gt;" id="osoWTUKzXkoyfH06XHp5-1">
          <mxCell style="rounded=1;whiteSpace=wrap;html=1;labelBackgroundColor=none;fillColor=#63BEF2;fontColor=#ffffff;align=center;arcSize=6;strokeColor=#2086C9;metaEdit=1;resizable=0;points=[[0.25,0,0],[0.5,0,0],[0.75,0,0],[1,0.25,0],[1,0.5,0],[1,0.75,0],[0.75,1,0],[0.5,1,0],[0.25,1,0],[0,0.75,0],[0,0.5,0],[0,0.25,0]];" vertex="1" parent="1">
            <mxGeometry x="470" y="450" width="240" height="120" as="geometry" />
          </mxCell>
        </object>
        <object placeholders="1" c4Name="DWH" c4Type="Component" c4Technology="Greenplum" c4Description="Хранилище структурированных данных" label="&lt;font style=&quot;font-size: 16px&quot;&gt;&lt;b&gt;%c4Name%&lt;/b&gt;&lt;/font&gt;&lt;div&gt;[%c4Type%: %c4Technology%]&lt;/div&gt;&lt;br&gt;&lt;div&gt;&lt;font style=&quot;font-size: 11px&quot;&gt;%c4Description%&lt;/font&gt;&lt;/div&gt;" id="osoWTUKzXkoyfH06XHp5-4">
          <mxCell style="rounded=1;whiteSpace=wrap;html=1;labelBackgroundColor=none;fillColor=#63BEF2;fontColor=#ffffff;align=center;arcSize=6;strokeColor=#2086C9;metaEdit=1;resizable=0;points=[[0.25,0,0],[0.5,0,0],[0.75,0,0],[1,0.25,0],[1,0.5,0],[1,0.75,0],[0.75,1,0],[0.5,1,0],[0.25,1,0],[0,0.75,0],[0,0.5,0],[0,0.25,0]];" vertex="1" parent="1">
            <mxGeometry x="670" y="200" width="240" height="120" as="geometry" />
          </mxCell>
        </object>
        <mxCell id="GUhgio1p0fQL5iSURagH-2" style="edgeStyle=orthogonalEdgeStyle;rounded=0;orthogonalLoop=1;jettySize=auto;html=1;entryX=0;entryY=0.5;entryDx=0;entryDy=0;entryPerimeter=0;" edge="1" parent="1">
          <mxGeometry relative="1" as="geometry">
            <mxPoint x="710" y="534" as="sourcePoint" />
            <mxPoint x="860" y="534" as="targetPoint" />
          </mxGeometry>
        </mxCell>
        <mxCell id="GUhgio1p0fQL5iSURagH-3" value="Сохраняет&lt;br&gt;необработанные &lt;br&gt;данные" style="edgeLabel;html=1;align=center;verticalAlign=middle;resizable=0;points=[];" vertex="1" connectable="0" parent="GUhgio1p0fQL5iSURagH-2">
          <mxGeometry x="0.3432" y="4" relative="1" as="geometry">
            <mxPoint x="-31" y="4" as="offset" />
          </mxGeometry>
        </mxCell>
      </root>
    </mxGraphModel>
  </diagram>
</mxfile>
